<?xml version="1.0" standalone="no"?>
<!DOCTYPE svg PUBLIC "-//W3C//DTD SVG 20010904//EN"
 "http://www.w3.org/TR/2001/REC-SVG-20010904/DTD/svg10.dtd">
<svg version="1.0" xmlns="http://www.w3.org/2000/svg"
 width="400.000000pt" height="400.000000pt" viewBox="0 0 400.000000 400.000000"
 preserveAspectRatio="xMidYMid meet">
<metadata>
Created by potrace 1.14, written by Peter Selinger 2001-2017
</metadata>
<g transform="translate(0.000000,400.000000) scale(0.100000,-0.100000)"
fill="#000000" stroke="none">
<path d="M2045 3706 c-100 -46 -140 -112 -140 -226 0 -62 5 -84 28 -128 15
-30 27 -56 27 -59 0 -10 -225 -222 -235 -223 -6 0 -43 16 -83 35 l-72 34 1 53
c1 71 6 83 64 126 86 64 108 148 64 240 -61 126 -250 134 -318 13 -52 -95 -30
-195 58 -251 56 -37 63 -50 63 -121 -1 -61 -3 -64 -61 -94 -67 -33 -108 -70
-133 -119 -18 -34 -22 -59 -23 -140 l0 -100 -175 -78 c-96 -43 -180 -78 -186
-78 -18 0 -54 49 -54 72 0 11 20 56 45 100 25 44 45 84 45 88 0 5 11 22 25 39
19 21 40 33 78 41 70 14 111 40 143 91 68 108 -4 262 -130 276 -98 11 -164
-25 -206 -113 -26 -57 -22 -100 15 -154 48 -70 48 -94 -2 -190 -65 -124 -66
-125 -176 -126 -74 0 -100 -5 -133 -22 -153 -79 -193 -261 -87 -390 44 -54
100 -81 185 -88 74 -6 96 -23 128 -97 13 -28 40 -80 61 -115 67 -111 68 -146
1 -214 -61 -64 -124 -42 -138 47 -13 89 -76 146 -166 151 -65 3 -100 -10 -143
-53 -86 -86 -64 -240 42 -293 66 -33 170 -25 204 16 17 21 75 44 98 39 43 -8
91 -65 91 -108 0 -7 18 -39 40 -71 39 -59 39 -60 22 -89 -22 -38 -47 -50 -86
-43 -58 12 -91 13 -126 3 -110 -30 -169 -157 -118 -257 60 -118 223 -139 312
-40 41 45 53 93 37 154 -11 46 -9 72 10 108 23 45 52 68 85 68 58 0 70 -22 98
-170 14 -74 27 -157 28 -184 1 -43 -2 -52 -28 -73 -68 -57 -88 -80 -110 -127
-73 -158 59 -351 239 -349 47 0 73 8 130 37 40 20 77 36 83 36 6 0 42 -14 80
-31 38 -17 89 -39 114 -50 87 -38 94 -45 116 -108 38 -108 98 -162 182 -163
72 -1 150 51 178 118 50 120 -44 254 -178 254 -37 0 -58 -8 -108 -42 -72 -48
-53 -51 -249 36 -95 43 -111 53 -111 73 0 13 8 31 18 41 21 21 329 102 385
102 25 0 48 -11 85 -40 68 -54 123 -73 187 -63 27 4 79 7 115 8 107 0 154 -49
164 -174 5 -62 23 -102 55 -129 65 -53 176 -58 242 -11 64 45 88 162 50 237
-23 46 -46 67 -94 87 -52 21 -94 19 -156 -10 -30 -14 -61 -23 -70 -20 -24 8
-111 92 -111 107 0 7 9 24 19 37 22 28 24 28 246 18 319 -15 370 -19 388 -29
10 -5 26 -28 36 -51 10 -23 30 -52 43 -65 49 -45 145 -55 213 -22 123 60 134
232 19 313 -86 60 -178 43 -262 -49 l-51 -55 -88 6 c-48 3 -106 8 -128 10 -22
3 -111 7 -198 10 -87 3 -167 9 -176 15 -51 27 -17 91 73 138 123 64 117 62
172 36 164 -79 313 50 264 228 -18 65 -101 118 -184 118 -47 0 -111 -37 -142
-82 -23 -33 -29 -52 -30 -105 -1 -35 -8 -70 -15 -79 -13 -15 -130 -86 -162
-97 -12 -5 -31 5 -61 33 -183 169 -436 64 -436 -181 0 -26 -6 -51 -13 -58 -16
-13 -359 -100 -370 -94 -9 5 -60 103 -63 122 -8 46 36 86 106 96 141 21 212
123 170 249 -11 33 -89 114 -114 117 -119 15 -208 -31 -241 -127 -16 -48 -10
-85 25 -152 24 -45 27 -59 18 -82 -12 -35 -31 -40 -82 -23 -21 7 -49 13 -61
13 -40 0 -59 33 -70 125 -8 69 -24 163 -34 206 -11 48 3 71 65 113 58 39 101
110 108 177 10 109 -72 244 -164 269 -43 12 -127 15 -167 6 -29 -6 -39 7 -126
176 l-76 147 41 35 c30 27 50 36 75 36 49 0 91 -28 104 -70 23 -73 42 -101 84
-125 100 -59 218 -24 266 80 45 98 6 202 -91 244 -84 36 -167 16 -228 -54 -20
-23 -29 -26 -63 -22 -49 6 -51 7 -59 59 -11 76 -3 89 85 133 146 73 286 135
305 135 10 0 47 -15 81 -32 139 -71 289 -28 353 101 25 51 33 135 17 189 -15
52 1 77 117 189 111 108 133 119 185 92 29 -16 37 -28 37 -61 0 -22 -9 -32
-45 -53 -111 -66 -143 -177 -79 -275 99 -150 337 -79 339 101 0 69 -35 127
-101 167 -51 31 -64 61 -40 97 22 33 72 34 101 2 11 -13 61 -68 110 -121 127
-138 142 -172 111 -260 -16 -46 -11 -95 15 -156 52 -118 180 -175 310 -137
107 32 166 110 176 234 3 37 11 78 19 90 14 23 33 21 120 -11 39 -14 57 -14
126 0 38 8 106 79 118 125 33 120 -72 244 -197 232 -104 -9 -167 -82 -165
-191 1 -52 -14 -92 -35 -92 -7 0 -34 16 -60 36 -27 21 -64 44 -83 52 -50 21
-145 18 -207 -7 -29 -11 -59 -18 -67 -15 -20 8 -256 283 -256 298 0 7 12 26
26 41 24 26 29 27 87 22 108 -10 155 -31 218 -99 53 -59 58 -61 112 -66 131
-11 242 110 208 227 -36 121 -167 178 -272 119 -21 -11 -54 -45 -75 -74 -20
-30 -42 -55 -48 -55 -79 -10 -154 9 -176 45 -7 11 -12 38 -12 59 7 157 -199
275 -353 203z"/>
<path d="M1805 2468 c-33 -15 -235 -341 -235 -379 0 -33 27 -53 81 -59 l53 -5
2 -170 c1 -184 8 -214 58 -267 50 -52 82 -62 200 -62 65 -1 110 3 112 9 1 6
-16 24 -38 40 -76 55 -82 76 -82 275 l-1 175 34 2 c56 2 77 11 91 39 14 24 12
31 -24 98 -58 109 -189 299 -211 306 -11 4 -29 3 -40 -2z"/>
<path d="M2098 2468 c-10 -7 -7 -13 12 -26 94 -65 107 -103 106 -304 l-1 -163
-45 -3 c-57 -4 -94 -35 -86 -73 9 -46 194 -345 225 -364 50 -30 61 -20 163
141 97 155 128 210 128 234 0 33 -39 60 -87 60 -24 0 -44 3 -44 8 -1 4 -2 81
-3 172 -2 144 -5 170 -23 205 -46 88 -103 117 -235 120 -53 1 -103 -2 -110 -7z"/>
</g>
</svg>
